<svg fill="#969696" width="24" height="24" viewBox="0 0 0.45 0.45" xmlns="http://www.w3.org/2000/svg">
  <path d="M.415.206.378.171.345.105A.032.032 0 0 0 .318.09H.132a.032.032 0 0 0-.027.015L.072.171.035.206A.015.015 0 0 0 .03.217v.128A.015.015 0 0 0 .045.36h.06C.111.36.12.354.12.348V.33h.21v.015C.33.351.336.36.342.36h.063A.015.015 0 0 0 .42.345V.217A.015.015 0 0 0 .415.206ZM.135.12h.18l.03.06h-.24ZM.15.258C.15.264.141.27.135.27H.072C.066.27.06.261.06.255V.222C.063.213.069.207.078.21l.06.012C.144.222.15.231.15.237ZM.39.255C.39.261.384.27.378.27H.315C.309.27.3.264.3.258V.237C.3.231.306.222.312.222L.372.21C.381.207.387.213.39.222Z"/>
</svg>
