<svg width="24px" height="24px" viewBox="0 0 0.72 0.72" xmlns="http://www.w3.org/2000/svg">
    <g fill="none" fill-rule="evenodd">
        <path fill="#969696" fill-rule="nonzero" d="M0.3 0.135a0.015 0.015 0 0 1 -0.03 0A0.045 0.045 0 0 1 0.315 0.09h0.09A0.045 0.045 0 0 1 0.45 0.135a0.015 0.015 0 1 1 -0.03 0 0.015 0.015 0 0 0 -0.015 -0.015h-0.09a0.015 0.015 0 0 0 -0.015 0.015ZM0.195 0.12a0.015 0.015 0 0 1 0 0.03A0.045 0.045 0 0 0 0.15 0.195v0.36A0.045 0.045 0 0 0 0.195 0.6h0.33a0.045 0.045 0 0 0 0.045 -0.045v-0.36A0.045 0.045 0 0 0 0.525 0.15a0.015 0.015 0 1 1 0 -0.03A0.075 0.075 0 0 1 0.6 0.195v0.36a0.075 0.075 0 0 1 -0.075 0.075h-0.33A0.075 0.075 0 0 1 0.12 0.555v-0.36A0.075 0.075 0 0 1 0.195 0.12Z"/>
        <path fill="#969696" fill-rule="nonzero" d="M0.454 0.274a0.015 0.015 0 0 1 0.021 0.021l-0.15 0.15a0.015 0.015 0 0 1 -0.021 0l-0.06 -0.06a0.015 0.015 0 0 1 0.021 -0.021l0.049 0.049 0.139 -0.139Z"/>
    </g>
</svg>