<svg xmlns="http://www.w3.org/2000/svg" viewBox="0 0 24 24" fill="#969696" style="enable-background:new 0 0 512 512" xml:space="preserve" width="24" height="24"><path d="M11.998 19.442h-0.006c-0.27 0 -0.49 0.219 -0.49 0.49s0.219 0.49 0.49 0.49h0.006c0.271 0 0.49 -0.219 0.49 -0.49s-0.219 -0.49 -0.49 -0.49z"/><path d="M12.004 19.442h-0.006c-0.27 0 -0.49 0.219 -0.49 0.49s0.219 0.49 0.49 0.49h0.006c0.27 0 0.49 -0.219 0.49 -0.49s-0.219 -0.49 -0.49 -0.49zm11.506 3.317h-0.006c-0.27 0 -0.49 0.219 -0.49 0.49s0.219 0.49 0.49 0.49h0.006c0.27 0 0.49 -0.219 0.49 -0.49s-0.219 -0.49 -0.49 -0.49zm-23.014 0h-0.006c-0.27 0 -0.49 0.219 -0.49 0.49 0 0.271 0.219 0.49 0.49 0.49h0.006c0.27 0 0.49 -0.219 0.49 -0.49s-0.219 -0.49 -0.49 -0.49zm9.718 -13.077c-0.302 0 -0.547 0.246 -0.547 0.547 0 0.302 0.246 0.547 0.547 0.547s0.547 -0.246 0.547 -0.547c0 -0.302 -0.246 -0.547 -0.547 -0.547zm3.573 0c-0.302 0 -0.547 0.246 -0.547 0.547 0 0.302 0.246 0.547 0.547 0.547s0.547 -0.246 0.547 -0.547c0 -0.302 -0.246 -0.547 -0.547 -0.547zm-1.31 2.308h-0.957c-0.27 0 -0.49 0.219 -0.49 0.49 0 0.534 0.434 0.968 0.968 0.968s0.968 -0.434 0.968 -0.968c0 -0.271 -0.219 -0.49 -0.49 -0.49zm-7.227 -3.853 -1.078 -1.91a0.49 0.49 0 0 0 -0.427 -0.249H1.591a0.49 0.49 0 0 0 -0.427 0.249L0.087 8.136a0.49 0.49 0 0 0 0 0.481l1.078 1.91a0.49 0.49 0 0 0 0.427 0.249h2.155c0.177 0 0.34 -0.095 0.427 -0.249l1.078 -1.91a0.49 0.49 0 0 0 0 -0.481zm-1.79 1.661H1.877L1.076 8.377l0.801 -1.42h1.583L4.261 8.377l-0.801 1.42z"/><path d="M2.668 7.293c-0.59 0 -1.07 0.486 -1.07 1.084 0 0.598 0.48 1.084 1.07 1.084 0.59 0 1.07 -0.486 1.07 -1.084 0 -0.597 -0.48 -1.084 -1.07 -1.084zm0 1.188c-0.05 0 -0.09 -0.047 -0.09 -0.104 0 -0.057 0.041 -0.104 0.09 -0.104s0.09 0.047 0.09 0.104c0 0.057 -0.041 0.104 -0.09 0.104zm0 -6.903c-0.59 0 -1.07 0.486 -1.07 1.084 0 0.598 0.48 1.084 1.07 1.084 0.59 0 1.07 -0.486 1.07 -1.084 0 -0.597 -0.48 -1.084 -1.07 -1.084zm0 1.188c-0.05 0 -0.09 -0.047 -0.09 -0.104s0.041 -0.104 0.09 -0.104 0.09 0.047 0.09 0.104 -0.041 0.104 -0.09 0.104z"/><path d="M5.25 2.421 4.172 0.51a0.49 0.49 0 0 0 -0.427 -0.249H1.591a0.49 0.49 0 0 0 -0.427 0.249L0.087 2.421a0.49 0.49 0 0 0 0 0.481l1.078 1.91a0.49 0.49 0 0 0 0.427 0.249h2.155c0.177 0 0.34 -0.095 0.427 -0.249l1.078 -1.91a0.49 0.49 0 0 0 0 -0.481zM3.46 4.082H1.877L1.076 2.661l0.801 -1.42h1.583L4.261 2.661 3.46 4.082zm0.407 14.79v-4.59c0.434 -0.37 0.686 -0.908 0.686 -1.489 0 -0.592 -0.264 -1.146 -0.724 -1.521a0.49 0.49 0 0 0 -0.797 0.335c-0.021 0.228 -0.21 0.399 -0.439 0.399s-0.417 -0.172 -0.439 -0.399a0.49 0.49 0 0 0 -0.797 -0.335c-0.46 0.374 -0.724 0.928 -0.724 1.52 0 0.58 0.252 1.119 0.686 1.489v4.59c-0.434 0.37 -0.686 0.908 -0.686 1.489 0 0.592 0.264 1.146 0.724 1.52a0.49 0.49 0 0 0 0.797 -0.335c0.021 -0.228 0.21 -0.399 0.439 -0.399s0.417 0.172 0.439 0.399a0.49 0.49 0 0 0 0.488 0.445c0.111 0 0.22 -0.037 0.309 -0.11 0.46 -0.374 0.724 -0.928 0.724 -1.521 0 -0.58 -0.252 -1.119 -0.686 -1.489zM3.116 19.532c0.287 0.181 0.458 0.491 0.458 0.829 0 0.061 -0.006 0.121 -0.017 0.18 -0.253 -0.233 -0.592 -0.373 -0.963 -0.373s-0.71 0.14 -0.963 0.373a0.981 0.981 0 0 1 -0.017 -0.18c0 -0.338 0.171 -0.648 0.458 -0.829a0.49 0.49 0 0 0 0.228 -0.414V14.036c0 -0.168 -0.086 -0.324 -0.228 -0.414 -0.287 -0.181 -0.458 -0.491 -0.458 -0.829 0 -0.061 0.006 -0.121 0.017 -0.18 0.253 0.233 0.592 0.373 0.963 0.373s0.71 -0.14 0.963 -0.373c0.011 0.059 0.017 0.119 0.017 0.18 0 0.338 -0.171 0.648 -0.458 0.829a0.49 0.49 0 0 0 -0.228 0.414v5.082c0 0.168 0.086 0.324 0.228 0.414zm15.218 -6.57c-0.308 0 -0.558 0.251 -0.558 0.558 0 0.308 0.251 0.558 0.558 0.558s0.558 -0.251 0.558 -0.558c0 -0.308 -0.251 -0.558 -0.558 -0.558zm0 2.475c-0.308 0 -0.558 0.251 -0.558 0.558 0 0.308 0.251 0.558 0.558 0.558s0.558 -0.251 0.558 -0.558c0 -0.308 -0.251 -0.558 -0.558 -0.558zm-1.237 -1.237c-0.308 0 -0.558 0.251 -0.558 0.558 0 0.308 0.251 0.558 0.558 0.558s0.558 -0.251 0.558 -0.558c0 -0.308 -0.251 -0.558 -0.558 -0.558zm2.475 0c-0.308 0 -0.558 0.251 -0.558 0.558 0 0.308 0.251 0.558 0.558 0.558s0.558 -0.251 0.558 -0.558c0 -0.308 -0.25 -0.558 -0.558 -0.558z"/><path d="M22.473 18.624c0.983 -1.052 1.525 -2.425 1.525 -3.866 0 -3.123 -2.541 -5.664 -5.664 -5.664 -0.241 0 -0.482 0.016 -0.721 0.046 -0.188 -0.219 -0.434 -0.387 -0.715 -0.478v-0.274c0.477 -0.389 0.731 -0.843 0.732 -1.33l0 -0.002 0 -0.001 0 -0.002 -0.005 -2.577c0 -0.018 -0.001 -0.035 -0.003 -0.053 -0.08 -0.74 -0.58 -1.393 -1.337 -1.748a0.451 0.451 0 0 0 -0.026 -0.011l-3.068 -1.247c-0.748 -0.346 -1.639 -0.346 -2.387 0l-3.077 1.247c-0.009 0.004 -0.018 0.007 -0.027 0.012 -0.751 0.352 -1.248 1.005 -1.328 1.748 -0.002 0.017 -0.008 0.035 -0.008 0.053v2.576l0 0.002 0 0.001 0 0.002c0.001 0.489 0.257 0.944 0.737 1.333v0.27c-0.636 0.207 -1.097 0.805 -1.097 1.51s0.461 1.303 1.097 1.51v0.407c0 0.012 0 0.025 0.001 0.037 0.064 0.838 0.485 1.591 1.126 2.014 0.009 0.006 0.017 0.011 0.026 0.016l1.28 0.734v0.763a0.299 0.299 0 0 1 -0.184 0.277l-3.152 1.313c-0.825 0.344 -1.401 1.251 -1.401 2.205v3.312H2.081c-0.27 0 -0.49 0.219 -0.49 0.49s0.219 0.49 0.49 0.49h19.838c0.27 0 0.49 -0.219 0.49 -0.49s-0.219 -0.49 -0.49 -0.49h-2.717v-2.404c1.25 -0.193 2.398 -0.797 3.271 -1.731zM7.349 4.506c0.051 -0.387 0.332 -0.735 0.755 -0.937l3.079 -1.248c0.008 -0.003 0.016 -0.007 0.024 -0.01 0.488 -0.228 1.093 -0.228 1.581 0 0.008 0.004 0.015 0.007 0.023 0.01L15.881 3.569c0.43 0.205 0.713 0.553 0.765 0.938v2.058H7.349V4.506zm9.028 3.037c-0.208 0.196 -0.528 0.39 -0.93 0.555 -0.914 0.376 -2.139 0.584 -3.45 0.584s-2.536 -0.207 -3.45 -0.584c-0.402 -0.166 -0.722 -0.359 -0.93 -0.555h8.76zm-7.62 5.77c-0.374 -0.253 -0.631 -0.728 -0.676 -1.246v-0.799c0 -0.271 -0.219 -0.49 -0.49 -0.49 -0.335 0 -0.607 -0.272 -0.607 -0.607s0.272 -0.607 0.607 -0.607c0.27 0 0.49 -0.219 0.49 -0.49v-0.109c0.031 0.013 0.061 0.026 0.093 0.039 1.029 0.424 2.387 0.657 3.823 0.657 1.436 0 2.794 -0.233 3.823 -0.657 0.033 -0.014 0.065 -0.027 0.098 -0.041v0.111c0 0.271 0.219 0.49 0.49 0.49 0.335 0 0.607 0.272 0.607 0.607s-0.272 0.607 -0.607 0.607c-0.27 0 -0.49 0.219 -0.49 0.49v0.799c-0.045 0.529 -0.293 0.992 -0.668 1.246l-2.637 1.508c-0.009 0.005 -0.018 0.011 -0.027 0.017 -0.367 0.242 -0.806 0.242 -1.173 0 -0.009 -0.006 -0.017 -0.011 -0.026 -0.016l-2.63 -1.508zm6.653 2.933 -0.762 -0.318a0.299 0.299 0 0 1 -0.185 -0.277v-0.76l0.595 -0.34a3.338 3.338 0 0 0 -0.006 0.206 3.26 3.26 0 0 0 0.359 1.489zm-1.926 -0.571c-0.351 0.469 -0.896 0.744 -1.488 0.744 -0.589 0 -1.132 -0.274 -1.483 -0.739 0 -0.01 0.001 -0.02 0.001 -0.03v-0.201l0.372 0.213c0.344 0.223 0.728 0.335 1.113 0.335 0.384 0 0.768 -0.112 1.112 -0.335l0.372 -0.213v0.2c0 0.008 0.001 0.016 0.001 0.024zM6.83 22.759h-1.052v-3.312c0 -0.552 0.343 -1.111 0.798 -1.301l0.254 -0.106v4.719zm7.469 0h-4.604V22.171h4.604v0.588zm0.98 0v-1.078c0 -0.271 -0.219 -0.49 -0.49 -0.49H9.206c-0.27 0 -0.49 0.219 -0.49 0.49v1.078H7.81V17.632l0.906 -0.378v2.677c0 0.271 0.219 0.49 0.49 0.49h1.201c0.27 0 0.49 -0.219 0.49 -0.49s-0.219 -0.49 -0.49 -0.49h-0.711v-2.595l0.033 -0.014a1.284 1.284 0 0 0 0.328 -0.199c0.519 0.488 1.207 0.766 1.941 0.766 0.735 0 1.424 -0.279 1.943 -0.768a1.283 1.283 0 0 0 0.331 0.201l0.028 0.012v2.597h-0.711c-0.27 0 -0.49 0.219 -0.49 0.49s0.219 0.49 0.49 0.49h1.201c0.27 0 0.49 -0.219 0.49 -0.49V17.253l0.906 0.378v5.129h-0.906zm2.943 0h-1.057V18.038l0.259 0.108c0.455 0.19 0.798 0.749 0.798 1.301v3.312zm-2.19 -8.002a2.287 2.287 0 0 1 0.304 -1.141 2.567 2.567 0 0 0 0.187 -0.277c0.422 -0.538 1.077 -0.884 1.812 -0.884 1.269 0 2.302 1.033 2.302 2.302 0 1.269 -1.033 2.302 -2.302 2.302s-2.302 -1.033 -2.302 -2.302zm3.168 4.604c-0.018 -0.49 -0.186 -0.962 -0.459 -1.348 1.618 -0.201 2.874 -1.584 2.874 -3.255 0 -1.81 -1.472 -3.282 -3.282 -3.282a3.26 3.26 0 0 0 -1.436 0.332v-0.127c0.636 -0.207 1.097 -0.805 1.097 -1.51 0 -0.028 -0.002 -0.056 -0.003 -0.084 0.114 -0.008 0.228 -0.014 0.342 -0.014 2.583 0 4.684 2.101 4.684 4.684 0 2.266 -1.639 4.195 -3.818 4.604z"/></svg>