<svg xmlns="http://www.w3.org/2000/svg" viewBox="0 0 24 24" style="enable-background:new 0 0 512 512" xml:space="preserve" width="24" height="24" fill="#969696">
  <path d="M.488 22.846H.482a.482.482 0 0 0 0 .964h.006a.482.482 0 0 0 0-.964zm22.651 0h-.006a.482.482 0 0 0 0 .964h.006a.482.482 0 0 0 0-.964zm-9.924-2.073h-.006a.482.482 0 0 0 0 .964h.006a.482.482 0 0 0 0-.964zm3.368 0h-1.809a.482.482 0 0 0 0 .964h1.809a.482.482 0 0 0 0-.964zm4.573-7.407c-1.568 0-2.844 1.276-2.844 2.844s1.276 2.844 2.844 2.844c1.568 0 2.844-1.276 2.844-2.844s-1.276-2.844-2.844-2.844zm0 4.724c-1.037 0-1.88-.843-1.88-1.88s.843-1.88 1.88-1.88 1.88.843 1.88 1.88-.843 1.88-1.88 1.88z"/>
  <path d="M21.156 14.382a.482.482 0 0 0-.482.482v.864H20.4a.482.482 0 0 0 0 .964h.756a.482.482 0 0 0 .482-.482v-1.346a.482.482 0 0 0-.482-.482zM3.278 10.943V9.764a.64.64 0 0 1 .193.456.482.482 0 0 0 .964 0c0-.726-.488-1.341-1.157-1.545v-.413a.482.482 0 0 0-.964 0v.413a1.622 1.622 0 0 0-1.157 1.545c0 .726.488 1.341 1.157 1.545v1.179a.64.64 0 0 1-.193-.456.482.482 0 0 0-.964 0c0 .726.488 1.341 1.157 1.545v.302a.482.482 0 0 0 .964 0v-.302a1.622 1.622 0 0 0 1.157-1.545c0-.726-.488-1.341-1.157-1.545zm-.964-.268a.64.64 0 0 1-.193-.456c0-.177.074-.338.193-.456v.911zm.964 2.269v-.911c.119.118.193.278.193.456s-.074.338-.193.456z"/>
  <path d="M21.573 22.846h-2.674v-3.259c0-.94-.567-1.832-1.379-2.17l-.406-.169a6.047 6.047 0 0 0 .963-3.264V7.589a6.027 6.027 0 0 0-1.396-3.854l.188-1.815a.482.482 0 0 0-.245-.471 9.969 9.969 0 0 0-4.836-1.26h-.011a9.977 9.977 0 0 0-4.778 1.224.482.482 0 0 0-.248.471l.187 1.852a6.03 6.03 0 0 0-1.395 3.853v6.394c0 1.155.339 2.293.963 3.264l-.406.169a2.009 2.009 0 0 0-.415.235v-.446a.482.482 0 0 0-.482-.482H.482a.484.484 0 0 0-.482.483v2.989c0 .266.216.482.482.482h1.543v2.17a.482.482 0 0 0 .023.963h19.525a.482.482 0 0 0 0-.964zM.964 19.713v-2.025h3.758v.868H3.093a.482.482 0 0 0 0 .964h1.629v.193H.964zm3.758 3.133H2.989v-2.169h1.734v2.169zm7.056-21.692h.01a9.015 9.015 0 0 1 4.089.99l-.133 1.284H7.876l-.133-1.316a9.01 9.01 0 0 1 4.035-.958zm2.315 3.238c-.479.219-1.248.416-2.282.416s-1.803-.197-2.282-.416h4.564zM6.508 7.589c0-1.165.403-2.291 1.14-3.198h.445c.432.908 2.084 1.38 3.718 1.38 1.635 0 3.286-.472 3.718-1.38h.445a5.063 5.063 0 0 1 1.14 3.198v6.394c0 1.028-.32 2.04-.907 2.886l-1.789-.745a.294.294 0 0 1-.182-.272v-.751l1.26-.722a.365.365 0 0 0 .026-.016c.629-.416 1.043-1.154 1.108-1.976a.536.536 0 0 0 .002-.041V7.973a.482.482 0 0 0-.482-.482H7.472a.482.482 0 0 0-.482.482v4.37l.001.037c.063.828.475 1.569 1.1 1.982a.365.365 0 0 0 .026.016l1.267.724v.748a.294.294 0 0 1-.182.272l-1.789.745a5.089 5.089 0 0 1-.907-2.886V7.589zm5.303 10.312-1.559-1.563a1.259 1.259 0 0 0 .098-.488v-.197l.366.209a2 2 0 0 0 1.095.33c.378 0 .756-.11 1.095-.33l.366-.21v.198c0 .171.035.336.098.488L11.811 17.9zm1.18.182-.217.742-.27-.253.488-.489zm-1.873.489-.27.253-.217-.742.488.489zm1.296-3.538a1.018 1.018 0 0 1-1.18.016.476.476 0 0 0-.026-.016L8.612 13.55c-.368-.249-.613-.706-.657-1.226V8.455h7.713v3.869c-.044.51-.297.977-.665 1.226l-2.588 1.484zm5.521 7.812H5.686v-3.259c0-.543.338-1.094.786-1.28l2.868-1.195.802 2.737a.486.486 0 0 0 .792.216l.876-.82.876.82a.487.487 0 0 0 .792-.216l.802-2.737 2.868 1.195c.448.187.786.737.786 1.28v3.259z"/>
  <path d="M13.566 9.975a.54.54 0 1 0 .002 1.08.54.54 0 0 0-.002-1.08zm-3.516 0a.54.54 0 1 0 .002 1.08.54.54 0 0 0-.002-1.08zm2.231 2.272h-.942a.482.482 0 0 0-.482.482.954.954 0 0 0 1.906 0 .482.482 0 0 0-.482-.482z"/>
</svg>
