<svg version="1.1" id="Layer_1" xmlns="http://www.w3.org/2000/svg" xmlns:xlink="http://www.w3.org/1999/xlink" x="0px" y="0px" viewBox="0 0 24 24" style="enable-background:new 0 0 512 512;" xml:space="preserve" width="24" height="24" fill="#969696">
  <g>
    <g>
      <path d="M21.379 22.621a0.414 0.414 0 0 0 -0.414 0.414v0.138H14.938l1.279 -2.132a0.414 0.414 0 0 0 0.038 -0.344l-0.29 -0.87 0.87 0.29a0.414 0.414 0 0 0 0.501 -0.208l1.475 -2.949c1.293 0.804 2.155 2.236 2.155 3.867a0.414 0.414 0 0 0 0.414 0.414 0.414 0.414 0 0 0 0.414 -0.414c0 -2.966 -2.413 -5.379 -5.379 -5.379h-1.714c1.283 -0.869 2.127 -2.338 2.127 -4V7.586c0 -2.662 -2.166 -4.828 -4.828 -4.828a4.811 4.811 0 0 0 -1.386 0.203 1.512 1.512 0 0 1 -0.132 -0.617c0 -0.837 0.681 -1.517 1.517 -1.517s1.517 0.681 1.517 1.517a0.414 0.414 0 0 0 0.414 0.414 0.414 0.414 0 0 0 0.414 -0.414C14.345 1.052 13.293 0 12 0s-2.345 1.052 -2.345 2.345c0 0.32 0.065 0.633 0.189 0.923 -1.583 0.793 -2.671 2.431 -2.671 4.318v3.862c0 1.662 0.845 3.131 2.127 4H7.586c-2.966 0 -5.379 2.413 -5.379 5.379v2.759a0.414 0.414 0 0 0 0.414 0.414h18.759a0.414 0.414 0 0 0 0.414 -0.414v-0.552a0.414 0.414 0 0 0 -0.414 -0.414zM15.193 16.276 13.842 18.977l-0.346 -1.039a0.41 0.41 0 0 0 -0.088 -0.148 1.177 1.177 0 0 0 0.109 -0.493v-0.662c0 -0.125 -0.02 -0.245 -0.056 -0.359h1.731zM8 7.586c0 -2.206 1.794 -4 4 -4s4 1.794 4 4v0.66c-1.402 -0.201 -2.483 -1.41 -2.483 -2.867 0 -0.229 -0.185 -0.414 -0.414 -0.414s-0.414 0.185 -0.414 0.414c0 1.807 -2.068 3.294 -4.69 3.437v-1.23zm0 3.862v-1.804c1.404 -0.069 2.714 -0.486 3.726 -1.194 0.588 -0.412 1.042 -0.897 1.346 -1.428 0.55 1.115 1.641 1.916 2.928 2.059v2.368c0 2.206 -1.794 4 -4 4s-4 -1.794 -4 -4zm4.69 5.186v0.662c0 0.198 -0.161 0.359 -0.359 0.359h-0.662c-0.198 0 -0.359 -0.161 -0.359 -0.359v-0.662c0 -0.198 0.161 -0.359 0.359 -0.359h0.662c0.198 0 0.359 0.161 0.359 0.359zm-2.151 -0.359a1.183 1.183 0 0 0 -0.056 0.359v0.662c0 0.176 0.04 0.343 0.109 0.493a0.412 0.412 0 0 0 -0.088 0.148l-0.346 1.039 -1.35 -2.701h1.731zM3.035 23.172v-2.345c0 -1.631 0.863 -3.064 2.155 -3.867l1.475 2.949a0.414 0.414 0 0 0 0.501 0.208l0.87 -0.29 -0.29 0.87a0.414 0.414 0 0 0 0.038 0.344l1.279 2.132H3.035zm6.993 0 -1.437 -2.395 0.492 -1.475a0.414 0.414 0 0 0 -0.523 -0.523l-1.315 0.438 -1.314 -2.629a4.525 4.525 0 0 1 1.657 -0.313h0.296v0l3.448 6.897h-1.303zm0.636 -3.185a0.409 0.409 0 0 0 0.074 -0.132l0.487 -1.46a1.179 1.179 0 0 0 0.445 0.087h0.662a1.18 1.18 0 0 0 0.445 -0.087l0.487 1.46a0.411 0.411 0 0 0 0.074 0.132L12 22.661l-1.337 -2.674zm2.006 3.185 3.448 -6.897h0.296a4.526 4.526 0 0 1 1.657 0.313l-1.314 2.629 -1.315 -0.438a0.414 0.414 0 0 0 -0.523 0.523l0.492 1.475 -1.437 2.394h-1.303z"/>
    </g>
  </g>
</svg>
