<svg version="1.1" id="Capa_1" xmlns="http://www.w3.org/2000/svg" xmlns:xlink="http://www.w3.org/1999/xlink" x="0px" y="0px" viewBox="0 0 24 24" style="enable-background:new 0 0 285 285;" xml:space="preserve" fill="#969696" width="24" height="24"><g><g><path d="M23.62 10.463 12.711 1.082a1.092 1.092 0 0 0 -1.423 0L0.38 10.463c-0.457 0.393 -0.508 1.082 -0.116 1.539 0.393 0.457 1.082 0.508 1.538 0.116L12 3.348l10.198 8.77a1.084 1.084 0 0 0 0.71 0.263c0.307 0 0.612 -0.129 0.828 -0.379 0.393 -0.457 0.342 -1.146 -0.116 -1.538z"/><path points="106.145,275.284 106.145,243.571 99.088,275.284 		" d="M8.939 23.182L8.939 20.511L8.344 23.182Z"/><path points="178.855,275.284 185.912,275.284 178.855,243.571 		" d="M15.061 23.182L15.656 23.182L15.061 20.511Z"/><path d="M12.356 4.877a0.546 0.546 0 0 0 -0.713 0l-8.221 7.091a0.545 0.545 0 0 0 -0.189 0.413v10.255a0.546 0.546 0 0 0 0.546 0.546H6.104l1.339 -5.988c0.066 -0.288 0.24 -0.549 0.518 -0.707 0.068 -0.039 1.604 -0.885 3.62 -0.995l0.272 0.546h0.009l-0.737 5.735 0.807 1.41h0.135l0.807 -1.41 -0.737 -5.735h0.007l0.273 -0.546c2.015 0.111 3.553 0.956 3.621 0.995 0.278 0.158 0.452 0.419 0.518 0.707l1.339 5.988h2.324c0.302 0 0.546 -0.244 0.546 -0.546V12.381a0.545 0.545 0 0 0 -0.189 -0.413L12.356 4.877zm-0.356 10.368c-1.527 0 -2.766 -1.771 -2.766 -3.298s1.239 -2.765 2.766 -2.765c1.526 0 2.765 1.238 2.765 2.765s-1.239 3.298 -2.765 3.298z"/></g></g></svg>