<svg version="1.1" id="Capa_1" xmlns="http://www.w3.org/2000/svg" xmlns:xlink="http://www.w3.org/1999/xlink" x="0px" y="0px" width="24px" height="24px" viewBox="0 0 24 24" style="enable-background:new 0 0 532.63 532.631;" xml:space="preserve" fill="#969696"><g><g><path d="M18.109 13.175c0.332 0 0.601 0.269 0.601 0.601 0 0.332 -0.269 0.601 -0.601 0.601 -0.332 0 -0.601 -0.269 -0.601 -0.601 0 -0.332 0.269 -0.601 0.601 -0.601z"/><path d="M8.998 3.625c0 -0.026 0 -0.073 0.001 -0.131H4.408v6.596h4.593l-0.003 -6.466z"/><path d="M22.988 17.78V7.918c0 -0.723 -0.395 -1.355 -0.98 -1.694V1.714H11.037v4.245h-1.471v1.959H21.029l0.001 9.861H3.004V12.229h8.62v-3.918h-2.059v0.98h0.426v1.698H3.592V9.29h0.336v-0.98H3.004v-0.392h0.924V5.959H3.004c-1.08 0 -1.959 0.879 -1.959 1.959v9.861H0v4.506h24v-4.506h-1.012zm-2.939 -11.82h-7.053V3.674H20.049v2.286zM12.441 21.306c-0.703 0 -1.274 -0.57 -1.274 -1.273 0 -0.703 0.57 -1.273 1.274 -1.273 0.703 0 1.273 0.57 1.273 1.273 0 0.703 -0.57 1.273 -1.273 1.273z"/><path d="M19.984 11.045c0 -0.527 -0.428 -0.955 -0.955 -0.955h-5.29c-0.527 0 -0.955 0.428 -0.955 0.955 0 0.528 0.427 0.955 0.955 0.955H19.029c0.528 0 0.955 -0.428 0.955 -0.955z"/><path d="M14.264 13.175c0.332 0 0.601 0.269 0.601 0.601 0 0.332 -0.269 0.601 -0.601 0.601 -0.332 0 -0.601 -0.269 -0.601 -0.601 0 -0.332 0.269 -0.601 0.601 -0.601z"/><path d="M14.264 15.159c0.332 0 0.601 0.269 0.601 0.601 0 0.332 -0.269 0.601 -0.601 0.601 -0.332 0 -0.601 -0.269 -0.601 -0.601 0 -0.332 0.269 -0.601 0.601 -0.601z"/><path d="M16.188 13.175c0.332 0 0.601 0.269 0.601 0.601 0 0.332 -0.269 0.601 -0.601 0.601 -0.332 0 -0.601 -0.269 -0.601 -0.601 0 -0.332 0.269 -0.601 0.601 -0.601z"/><path d="M18.109 15.159c0.332 0 0.601 0.269 0.601 0.601 0 0.332 -0.269 0.601 -0.601 0.601 -0.332 0 -0.601 -0.269 -0.601 -0.601 0 -0.332 0.269 -0.601 0.601 -0.601z"/><path d="M16.188 15.159c0.332 0 0.601 0.269 0.601 0.601 0 0.332 -0.269 0.601 -0.601 0.601 -0.332 0 -0.601 -0.269 -0.601 -0.601 0 -0.332 0.269 -0.601 0.601 -0.601z"/></g></g></svg>