<svg width="24px" height="24px" viewBox="0 0 0.72 0.72" fill="none" xmlns="http://www.w3.org/2000/svg">
    <path d="M0.34 0.068a0.03 0.03 0 0 1 0.04 0l0.27 0.24a0.03 0.03 0 0 1 -0.04 0.045L0.6 0.343V0.57a0.06 0.06 0 0 1 -0.06 0.06H0.18a0.06 0.06 0 0 1 -0.06 -0.06v-0.226l-0.01 0.009a0.03 0.03 0 0 1 -0.04 -0.045l0.27 -0.24zM0.18 0.29V0.57h0.09v-0.15a0.03 0.03 0 0 1 0.03 -0.03h0.12a0.03 0.03 0 0 1 0.03 0.03v0.15h0.09V0.29l-0.18 -0.16 -0.18 0.16zM0.39 0.57v-0.12h-0.06v0.12h0.06z" fill="#969696"/>
</svg>