<svg fill="#949494" xmlns="http://www.w3.org/2000/svg" width="24px" height="24px" viewBox="0 0 1.56 1.56" enable-background="new 0 0 52 52" xml:space="preserve"><path d="M0.903 0.783c0 -0.069 0.042 -0.129 0.099 -0.159 -0.009 -0.117 -0.105 -0.207 -0.225 -0.207 -0.123 0 -0.225 0.102 -0.225 0.225s0.102 0.225 0.225 0.225c0.045 0 0.09 -0.015 0.123 -0.039v-0.045z"/><path d="M0.903 1.092v-0.057c0 -0.021 0.003 -0.039 0.009 -0.057H0.384c0 -0.087 -0.069 -0.159 -0.159 -0.159V0.483c0.087 0 0.159 -0.069 0.159 -0.159h0.789c0 0.087 0.069 0.159 0.159 0.159v0.12h0.114c0.021 0 0.039 0.003 0.057 0.009V0.291c0 -0.075 -0.06 -0.135 -0.135 -0.135H0.195C0.12 0.156 0.06 0.216 0.06 0.291v0.726c0 0.075 0.06 0.135 0.135 0.135h0.72c-0.006 -0.018 -0.012 -0.039 -0.012 -0.06z"/><path d="M1.5 1.347c0 0.03 -0.03 0.057 -0.06 0.057H1.08c-0.03 0 -0.057 -0.027 -0.057 -0.057V1.29c0 -0.03 0.027 -0.057 0.057 -0.057h0.363c0.03 0 0.057 0.027 0.057 0.057v0.057z"/><path d="M1.5 1.095c0 0.03 -0.03 0.057 -0.06 0.057H1.08c-0.03 0 -0.057 -0.027 -0.057 -0.057v-0.057c0 -0.03 0.027 -0.057 0.057 -0.057h0.363c0.03 0 0.057 0.027 0.057 0.057v0.057z"/><g><path d="M1.5 0.84c0 0.03 -0.03 0.057 -0.06 0.057H1.08c-0.03 0 -0.057 -0.027 -0.057 -0.057v-0.057c0 -0.03 0.027 -0.057 0.057 -0.057h0.363c0.03 0 0.057 0.027 0.057 0.057V0.84z"/></g></svg>