<svg version="1.1" id="Layer_1" xmlns="http://www.w3.org/2000/svg" xmlns:xlink="http://www.w3.org/1999/xlink" x="0px" y="0px" width="24px" height="23.719px" viewBox="0 0 24 23.719" enable-background="new 0 0 256 253" xml:space="preserve" fill="#969696"><path d="M0.188 6.469c0 1.282 0.902 2.372 2.063 2.773V21.844H0.188v1.688h23.625v-1.688h-2.063V9.239c1.208 -0.37 2.034 -1.443 2.063 -2.771v-0.75H0.188v0.75zm5.933 -0.061c0 0.607 0.633 2.95 2.974 2.95 2.033 0 2.925 -1.839 2.925 -2.95 0 1.036 0.695 2.948 2.95 2.948 2.037 0 2.94 -1.969 2.94 -2.948 0 1.352 0.912 2.477 2.152 2.827V21.844H3.938V9.243c1.256 -0.34 2.183 -1.472 2.183 -2.836zM23.813 5.063H0.188l3 -3V0.188h17.719v1.875h-0.016L23.813 5.063zm-8.074 13.917c0.012 0.109 0 0.239 -0.028 0.361l-1.034 -0.953 -0.932 1.018 1.046 0.949c-0.122 0.041 -0.239 0.069 -0.361 0.069 -0.361 0.012 -0.669 -0.097 -0.932 -0.336 -0.264 -0.251 -0.405 -0.543 -0.418 -0.904 0 -0.126 0.012 -0.268 0.041 -0.389l-0.251 -0.239 -1.504 -1.374L8.818 19.985c-0.154 0.207 -0.393 0.349 -0.669 0.349a0.806 0.806 0 0 1 -0.807 -0.807c0 -0.239 0.093 -0.458 0.276 -0.612l2.643 -2.741 -1.597 -1.464c-0.126 0.057 -0.268 0.085 -0.389 0.085 -0.361 0.012 -0.669 -0.097 -0.932 -0.336s-0.405 -0.531 -0.418 -0.892c-0.012 -0.109 0 -0.239 0.028 -0.361l1.046 0.949 0.924 -1.014 -1.046 -0.949c0.109 -0.041 0.239 -0.069 0.361 -0.069 0.361 -0.012 0.669 0.097 0.932 0.336 0.264 0.235 0.405 0.543 0.418 0.904 0.012 0.122 0 0.239 -0.028 0.361l1.646 1.508 1.204 -1.301 -1.8 -1.585 1.634 -1.861 4.626 4.07 -1.634 1.861 -1.849 -1.63 -1.164 1.374 1.808 1.654c0.122 -0.041 0.239 -0.069 0.361 -0.069 0.361 -0.012 0.669 0.097 0.932 0.336 0.263 0.235 0.405 0.527 0.413 0.896z"/></svg>